<?xml version="1.0" encoding="UTF-8" standalone="yes"?>
<svg width="109" height="135" viewBox="0 0 109 135" fill="none" xmlns="http://www.w3.org/2000/svg">
  <path fill-rule="evenodd" clip-rule="evenodd" d="M31.5 78C24.8726 78 19.5 83.3726 19.5 90V109.542C19.5 114.789 15.2467 119.042 10 119.042C4.75329 119.042 0.5 114.789 0.5 109.542V33.3949C0.5 26.1974 2.89485 19.2044 7.3072 13.5179C20.2882 -3.21168 45.5603 -3.21168 58.5413 13.5179C62.9536 19.2044 65.3485 26.1974 65.3485 33.3949V103.805C65.3485 106.485 66.2404 109.09 67.8837 111.208C72.7182 117.438 82.1303 117.438 86.9648 111.208C88.6081 109.09 89.5 106.485 89.5 103.805V42.8949C89.5 37.6482 93.7533 33.3949 99 33.3949C104.247 33.3949 108.5 37.6482 108.5 42.8949V103.805C108.5 110.703 106.205 117.405 101.976 122.855C89.5348 138.889 65.3137 138.889 52.8726 122.855C48.6437 117.405 46.3485 110.703 46.3485 103.805V90C46.3485 83.3726 40.9759 78 34.3485 78H31.5ZM22.3183 25.1655C27.6927 18.2391 38.1558 18.2391 43.5302 25.1655C45.357 27.5198 46.3485 30.415 46.3485 33.3949V52C46.3485 58.6274 40.9759 64 34.3485 64H31.5C24.8726 64 19.5 58.6274 19.5 52V33.3949C19.5 30.415 20.4915 27.5198 22.3183 25.1655Z" fill="white"/>
  <circle cx="99" cy="11" r="10" fill="#3ACBC6"/>
</svg>